<?xml version="1.0" encoding="utf-8"?>
<!-- Generator: Adobe Illustrator 24.1.1, SVG Export Plug-In . SVG Version: 6.00 Build 0)  -->
<svg version="1.1"
	 id="svg2" inkscape:version="0.48.3.1 r9886" sodipodi:docname="Neues Dokument 1" xmlns:cc="http://creativecommons.org/ns#" xmlns:dc="http://purl.org/dc/elements/1.1/" xmlns:inkscape="http://www.inkscape.org/namespaces/inkscape" xmlns:rdf="http://www.w3.org/1999/02/22-rdf-syntax-ns#" xmlns:sodipodi="http://sodipodi.sourceforge.net/DTD/sodipodi-0.dtd" xmlns:svg="http://www.w3.org/2000/svg"
	 xmlns="http://www.w3.org/2000/svg" xmlns:xlink="http://www.w3.org/1999/xlink" x="0px" y="0px" viewBox="0 0 275 187.5"
	 style="enable-background:new 0 0 275 187.5;" xml:space="preserve">
<style type="text/css">
	.st0{fill:#E5E5E5;}
	.st1{fill:#FC6C00;}
	.st2{fill:#FD6B00;}
	.st3{fill:#FFFFFF;}
</style>
<g id="layer1" transform="translate(-267.90319,-401.477)" inkscape:groupmode="layer" inkscape:label="Ebene 1">
	<g>
		<path id="path3005" inkscape:connector-curvature="0" class="st0" d="M375.7,430.7l-5.5-5.4c-5.4-5.4-11.9-5.5-18,0.6l-4.3,4.3
			c-6.1,6.1-6,12.6-0.6,18l5.5,5.4c5.4,5.4,11.9,5.5,18-0.5l4.3-4.3C381.2,442.6,381.1,436.1,375.7,430.7 M348.3,458l-5.5-5.4
			c-5.4-5.4-11.9-5.5-18,0.6l-4.3,4.3c-6.1,6.1-6,12.6-0.6,18l17.5,17.5c2,2,4.3,1.7,5.9,0.2c1.6-1.6,1.8-3.8-0.2-5.8l-4-4
			c1.1-0.2,2.4-1.1,4-2.7l4.6-4.6C353.8,469.9,353.7,463.4,348.3,458 M326.6,492L315,480.4c-5.4-5.4-11.9-5.5-18,0.6l-4.3,4.3
			c-6.1,6.1-6,12.6-0.6,18l11.6,11.6c2,2,4.3,1.7,5.9,0.2c1.5-1.6,1.8-3.8-0.2-5.8l-11.5-11.5c-2.2-2.2-2.1-4.2,0.3-6.7l4.6-4.6
			c2.4-2.4,4.5-2.5,6.7-0.3l11.5,11.5c2,2,4.3,1.8,5.8,0.2C328.3,496.3,328.6,494,326.6,492 M445,506.6l-71.9,71.9
			c-7.2,7.2-15.6,7.2-22.8,0l-71.9-71.9c-7.2-7.2-7.2-15.5,0-22.8l71.9-71.9c7.2-7.3,15.5-7.3,22.8,0l71.9,71.9
			C452.3,491.1,452.3,499.4,445,506.6 M364.7,431c-2.2-2.2-4.2-2.1-6.7,0.3l-4.6,4.6c-2.4,2.4-2.5,4.5-0.3,6.7l5.2,5.3
			c2.2,2.2,4.2,2.1,6.7-0.3l4.6-4.6c2.4-2.4,2.5-4.5,0.3-6.7L364.7,431z M342.6,463.6c2.2,2.2,2.1,4.2-0.3,6.7l-4.6,4.6
			c-2.5,2.4-4.5,2.5-6.7,0.3l-5.3-5.3c-2.2-2.2-2.1-4.2,0.3-6.7l4.6-4.6c2.5-2.4,4.5-2.5,6.7-0.3
			C337.3,458.3,342.6,463.6,342.6,463.6z"/>
		<path id="path3009" inkscape:connector-curvature="0" class="st1" d="M342.6,463.6l-5.3-5.3c-2.2-2.2-4.2-2.1-6.7,0.3l-4.6,4.6
			c-2.4,2.4-2.5,4.5-0.3,6.7l5.3,5.3c2.2,2.2,4.2,2.1,6.7-0.3l4.6-4.6C344.7,467.8,344.7,465.7,342.6,463.6 M348.3,458
			c5.4,5.4,5.5,11.9-0.6,18l-4.6,4.6c-1.6,1.6-2.9,2.4-4,2.7l4,4c2,2,1.8,4.3,0.2,5.8c-1.6,1.6-3.8,1.8-5.9-0.2L320,475.5
			c-5.4-5.4-5.5-11.9,0.6-18l4.3-4.3c6.1-6.1,12.6-6,18-0.6L348.3,458z M369.9,436.2l-5.3-5.3c-2.2-2.2-4.2-2.1-6.7,0.3l-4.6,4.6
			c-2.4,2.4-2.5,4.5-0.3,6.7l5.2,5.3c2.2,2.2,4.2,2.1,6.7-0.3l4.6-4.6C372,440.4,372.1,438.4,369.9,436.2 M375.7,430.7
			c5.4,5.4,5.5,11.9-0.6,18l-4.3,4.3c-6.1,6.1-12.6,6-18,0.5l-5.5-5.4c-5.4-5.4-5.5-11.9,0.6-18l4.3-4.3c6.1-6.1,12.6-6,18-0.6
			L375.7,430.7z M326.6,492c2,2,1.7,4.3,0.2,5.9c-1.6,1.6-3.8,1.8-5.8-0.2l-11.5-11.5c-2.2-2.2-4.2-2.1-6.7,0.3l-4.6,4.6
			c-2.4,2.4-2.5,4.5-0.3,6.7l11.5,11.5c2,2,1.8,4.3,0.2,5.8c-1.6,1.5-3.8,1.8-5.9-0.2l-11.6-11.6c-5.4-5.4-5.5-11.9,0.6-18l4.3-4.3
			c6.1-6.1,12.6-6,18-0.6C315,480.4,326.6,492,326.6,492z"/>
	</g>
	<g>
		<path id="path3013" inkscape:connector-curvature="0" class="st2" d="M365.8,483.8c-7.2,7.2-7.2,15.5,0,22.8l71.9,71.9
			c7.2,7.2,15.5,7.2,22.8,0l71.9-71.9c7.2-7.2,7.2-15.5,0-22.8l-71.9-71.9c-7.2-7.2-15.6-7.2-22.8,0L365.8,483.8z"/>
		<g>
			<path class="st3" d="M390,508.2l0.3-0.8c0.5-1.1,1.1-1.7,1.9-1.7c0.3,0,0.7,0.1,1.3,0.3c2.4,0.8,4.6,1.3,6.7,1.3
				c3.7,0,5.6-1,5.6-2.9c0-0.4-0.1-0.8-0.3-1.1c-0.2-0.3-0.4-0.6-0.6-0.8c-0.2-0.2-0.6-0.4-1.1-0.6c-0.5-0.2-1-0.3-1.3-0.4
				c-0.3-0.1-0.9-0.2-1.7-0.4c-1.5-0.3-2.6-0.6-3.4-0.8c-0.8-0.2-1.8-0.6-2.8-1c-1.1-0.5-1.9-0.9-2.4-1.5c-0.5-0.5-1-1.2-1.4-2.1
				c-0.4-0.9-0.6-1.9-0.6-3.1c0-2.7,1-4.9,3.1-6.4c2-1.5,5-2.3,8.8-2.3c2.8,0,5.4,0.4,7.6,1.3c1.1,0.4,1.6,1.1,1.6,2
				c0,0.3-0.1,0.7-0.3,1.2l-0.3,0.7c-0.5,1.1-1.1,1.7-1.9,1.7c-0.3,0-0.7-0.1-1.3-0.3c-2-0.7-3.8-1-5.6-1c-3.5,0-5.2,0.9-5.2,2.8
				c0,0.9,0.3,1.5,1,1.9c0.7,0.4,2,0.8,4,1.3c1.5,0.4,2.6,0.7,3.4,0.9c0.8,0.2,1.7,0.6,2.8,1c1.1,0.5,1.9,0.9,2.4,1.5
				c0.5,0.5,1,1.2,1.4,2.1c0.4,0.9,0.6,1.9,0.6,3.1c0,2.8-1,4.9-3.1,6.4c-2,1.5-5.1,2.3-9.1,2.3c-3.6,0-6.5-0.5-8.8-1.4
				c-1.1-0.4-1.6-1.1-1.6-2C389.8,509,389.9,508.6,390,508.2z"/>
			<path class="st3" d="M420,502v-11.9h-2c-0.8,0-1.4-0.2-1.8-0.6c-0.4-0.4-0.6-1-0.6-1.8V487c0-0.8,0.2-1.4,0.6-1.8
				c0.4-0.4,1-0.6,1.8-0.6h2v-4.5c0-0.8,0.2-1.4,0.6-1.8c0.4-0.4,1-0.6,1.8-0.6h1.7c0.8,0,1.4,0.2,1.8,0.6c0.4,0.4,0.6,1,0.6,1.8
				v4.5h6.8c0.8,0,1.4,0.2,1.8,0.6c0.4,0.4,0.6,1,0.6,1.8v0.8c0,0.8-0.2,1.4-0.6,1.8c-0.4,0.4-1,0.6-1.8,0.6h-6.8v11.2
				c0,2.2,0.4,3.7,1.2,4.5c0.8,0.8,2.1,1.2,3.8,1.2c0.4,0,0.9,0,1.5-0.1c0.4-0.1,0.8-0.1,1-0.1c0.9,0,1.4,0.5,1.6,1.4l0.2,1
				c0.1,0.5,0.2,0.9,0.2,1.1c0,1.1-0.6,1.7-1.8,1.9c-1.4,0.3-2.6,0.4-3.7,0.4C423.5,512.7,420,509.1,420,502z"/>
			<path class="st3" d="M462.4,496.8l-18.3-11.4c-1.2-0.8-2.8,0.1-2.8,1.6v22.8c0,1.4,1.6,2.3,2.8,1.6l18.3-11.4
				C463.6,499.2,463.6,497.5,462.4,496.8z"/>
			<path class="st3" d="M467.1,509.8v-21.5c0-1.6,0.8-2.6,2.3-3c2.8-0.8,5.7-1.2,8.6-1.2c1.5,0,2.8,0.1,3.9,0.2
				c1.4,0.2,2.1,0.9,2.1,2.1c0,0.3,0,0.7-0.1,1l-0.1,0.5c-0.2,0.8-0.4,1.4-0.7,1.7c-0.3,0.3-0.7,0.5-1.4,0.5c-0.2,0-0.7,0-1.5-0.1
				c-0.8-0.1-1.5-0.1-2.1-0.1c-1.8,0-3.3,0.2-4.4,0.5v19.4c0,0.8-0.2,1.4-0.6,1.8c-0.4,0.4-1,0.6-1.8,0.6h-1.7
				c-0.8,0-1.4-0.2-1.8-0.6C467.3,511.2,467.1,510.6,467.1,509.8z"/>
			<path class="st3" d="M492.4,502v-11.9h-2c-0.8,0-1.4-0.2-1.8-0.6c-0.4-0.4-0.6-1-0.6-1.8V487c0-0.8,0.2-1.4,0.6-1.8
				c0.4-0.4,1-0.6,1.8-0.6h2v-4.5c0-0.8,0.2-1.4,0.6-1.8c0.4-0.4,1-0.6,1.8-0.6h1.7c0.8,0,1.4,0.2,1.8,0.6s0.6,1,0.6,1.8v4.5h6.8
				c0.8,0,1.4,0.2,1.8,0.6c0.4,0.4,0.6,1,0.6,1.8v0.8c0,0.8-0.2,1.4-0.6,1.8c-0.4,0.4-1,0.6-1.8,0.6H499v11.2c0,2.2,0.4,3.7,1.2,4.5
				c0.8,0.8,2.1,1.2,3.8,1.2c0.4,0,0.9,0,1.5-0.1c0.4-0.1,0.8-0.1,1-0.1c0.9,0,1.4,0.5,1.6,1.4l0.2,1c0.1,0.5,0.2,0.9,0.2,1.1
				c0,1.1-0.6,1.7-1.8,1.9c-1.4,0.3-2.6,0.4-3.7,0.4C495.9,512.7,492.4,509.1,492.4,502z"/>
		</g>
	</g>
</g>
</svg>